#!OML:ASF H:\Terrain\Patient Classification 1\Walking\liu\liu.ASF
:FULLY-SPECIFIED
:DEGREES
469
root 11.966900 19.136150 32.438778 4.359322 4.685890 3.120975
lowerback -5.534342 -4.393059 -4.386338
upperback 0.367595 -5.664813 2.089373
thorax 4.060639 -2.925626 4.132480
lowerneck -24.934690 -3.125364 -11.145860
upperneck 26.815250 -3.626491 11.088000
head 13.355210 -1.216996 5.492641
rclavicle -0.000000 -0.000000
rhumerus -49.912281 11.587729 -95.177940
rradius 42.675819
rwrist -21.849300
rhand -27.666540 -44.596199
rfingers 7.837522
rthumb 1.501852 -77.569145
lclavicle -0.000000 -0.000000
lhumerus -13.329250 -21.640850 93.383072
lradius 29.981710
lwrist 5.607679
lhand -16.195520 -27.158669
lfingers 7.837522
lthumb 12.574870 5.476515
rfemur -36.190331 1.139160 17.647850
rtibia 54.690571
rfoot -21.661200 -11.294140
rtoes -17.117430
lfemur -8.880905 2.765015 -31.301600
ltibia 25.102221
lfoot -19.242409 4.139575
ltoes 3.985080
470
root 11.975700 19.113270 32.581779 4.403234 4.795274 3.409428
lowerback -4.850714 -4.445771 -4.442130
upperback -0.321807 -5.755695 1.982024
thorax 2.965677 -2.937671 4.121370
lowerneck -24.303070 -3.122779 -11.143991
upperneck 27.354139 -3.662329 10.877316
head 13.440460 -1.279542 5.420481
rclavicle -0.000000 -0.000000
rhumerus -51.373081 11.438130 -95.243279
rradius 42.811012
rwrist -21.747330
rhand -28.091579 -43.454727
rfingers 7.837522
rthumb 1.091377 -76.429977
lclavicle -0.000000 -0.000000
lhumerus -14.057119 -21.765369 93.574913
lradius 30.489801
lwrist 5.774604
lhand -16.405510 -27.332140
lfingers 7.837522
lthumb 12.372359 5.314177
rfemur -36.628460 1.027353 17.264721
rtibia 53.097000
rfoot -21.648991 -10.975294
rtoes -16.789299
lfemur -7.855364 2.769536 -31.591560
ltibia 24.206600
lfoot -19.493101 3.951112
ltoes 3.923326
471
root 11.979880 19.111401 32.722797 4.397723 4.966621 2.911513
lowerback -5.959767 -4.356539 -3.703656
upperback 0.517669 -5.639942 1.965073
thorax 4.380068 -2.904429 3.591071
lowerneck -25.033800 -3.380894 -11.208340
upperneck 27.042950 -3.965456 11.053020
head 13.508110 -1.378773 5.443163
rclavicle -0.000000 -0.000000
rhumerus -50.340183 10.489446 -94.806145
rradius 42.831142
rwrist -21.288851
rhand -29.103359 -39.828251
rfingers 7.837522
rthumb 0.114181 -72.805923
lclavicle -0.000000 -0.000000
lhumerus -12.118259 -22.741621 92.906555
lradius 30.848730
lwrist 6.475095
lhand -16.755310 -27.247992
lfingers 7.837522
lthumb 12.034990 5.416488
rfemur -37.109489 1.104928 17.791071
rtibia 51.493202
rfoot -21.373110 -11.221319
rtoes -19.447559
lfemur -6.820561 2.821137 -30.979191
ltibia 23.188330
lfoot -19.528959 3.745709
ltoes 3.156791
472
root 11.982300 19.124380 32.855129 4.445012 5.029024 3.042380
lowerback -6.874725 -4.433451 -3.858668
upperback 1.310716 -5.702576 1.908654
thorax 5.739657 -2.969571 3.516667
lowerneck -25.678511 -3.457663 -11.452101
upperneck 26.514730 -4.046680 11.613029
head 13.457510 -1.346059 5.676330
rclavicle 0.000000 -0.000000
rhumerus -49.237652 9.950600 -94.390999
rradius 42.958302
rwrist -20.863810
rhand -30.875900 -32.760750
rfingers 7.837522
rthumb -1.597816 -65.733032
lclavicle 0.000000 -0.000000
lhumerus -10.174911 -23.064030 92.173615
lradius 31.068621
lwrist 7.122027
lhand -17.025581 -27.288801
lfingers 7.837522
lthumb 11.774180 5.389252
rfemur -37.779942 1.558821 17.456450
rtibia 49.843418
rfoot -21.284889 -11.371031
rtoes -20.532709
lfemur -5.872328 2.953500 -31.050032
ltibia 22.300850
lfoot -19.475609 3.679379
ltoes 3.852596
473
root 11.989229 19.121410 32.991199 4.329259 4.961308 3.564187
lowerback -7.470221 -4.541592 -4.428358
upperback 2.049245 -5.771370 1.767337
thorax 6.903963 -3.048606 3.606328
lowerneck -26.221910 -3.469202 -11.382030
upperneck 25.936239 -4.021237 11.714670
head 13.336510 -1.297417 5.688276
rclavicle 0.000000 -0.000000
rhumerus -48.233242 9.813253 -94.214012
rradius 43.023201
rwrist -21.340769
rhand -29.876112 -35.505470
rfingers 7.837522
rthumb -0.632141 -68.482368
lclavicle 0.000000 -0.000000
lhumerus -8.384079 -22.991980 91.445969
lradius 31.280260
lwrist 7.696887
lhand -16.965300 -27.370861
lfingers 7.837522
lthumb 11.832479 5.304178
rfemur -38.139858 2.054910 16.649931
rtibia 48.112129
rfoot -21.582989 -10.966769
rtoes -19.190491
lfemur -4.607152 2.988546 -31.588699
ltibia 21.320309
lfoot -19.553711 3.800126
ltoes 3.875344
474
root 11.995390 19.112720 33.124741 4.315421 4.881657 3.584603
lowerback -6.912752 -4.523090 -4.358541
upperback 1.629793 -5.775418 1.799919
thorax 6.140046 -3.030852 3.656664
lowerneck -25.671911 -3.371984 -11.187550
upperneck 26.085402 -3.902932 11.306570
head 13.257860 -1.293402 5.514553
rclavicle 0.000000 -0.000000
rhumerus -49.256573 10.117910 -94.421143
rradius 43.023640
rwrist -22.253990
rhand -34.087570 -32.571548
rfingers 7.837522
rthumb -4.699442 -65.502144
lclavicle 0.000000 -0.000000
lhumerus -8.756088 -22.969980 91.631325
lradius 31.777571
lwrist 7.722341
lhand -16.915911 -27.433781
lfingers 7.837522
lthumb 11.880111 5.238827
rfemur -38.580303 2.704372 16.373720
rtibia 46.354000
rfoot -21.826309 -10.578468
rtoes -17.955521
lfemur -3.421902 2.712688 -31.609600
ltibia 20.091721
lfoot -19.482210 4.114363
ltoes 3.228203
475
root 11.999021 19.119759 33.267078 4.362853 4.960879 3.342680
lowerback -5.586559 -4.629471 -4.012096
upperback 0.436523 -5.995121 1.931424
thorax 4.142622 -3.082739 3.721641
lowerneck -24.765400 -3.053072 -10.930568
upperneck 27.097839 -3.579092 10.883927
head 13.417800 -1.208196 5.393498
rclavicle 0.000000 -0.000000
rhumerus -51.584393 10.667382 -94.866859
rradius 43.010220
rwrist -22.677490
rhand -32.951488 -33.047741
rfingers 7.837522
rthumb -3.602324 -65.997803
lclavicle 0.000000 -0.000000
lhumerus -10.696817 -22.801022 92.311668
lradius 32.350891
lwrist 7.590583
lhand -17.319279 -27.729349
lfingers 7.837522
lthumb 11.490930 4.963145
rfemur -39.051758 3.142733 16.434330
rtibia 44.588284
rfoot -21.716089 -10.504174
rtoes -18.177391
lfemur -2.323882 2.396713 -31.315022
ltibia 18.895910
lfoot -19.268589 4.305015
ltoes 5.287029
476
root 12.003200 19.123610 33.418552 4.346507 5.003988 3.515248
lowerback -4.632892 -4.836403 -4.160915
upperback -0.365738 -6.297555 1.953391
thorax 2.820609 -3.201022 3.909180
lowerneck -24.259069 -2.717979 -10.531610
upperneck 27.824280 -3.208909 10.436624
head 13.540450 -1.080315 5.236517
rclavicle 0.000000 0.000000
rhumerus -53.205566 11.077769 -95.129211
rradius 43.167301
rwrist -22.699711
rhand -33.440220 -30.205891
rfingers 7.837522
rthumb -4.074356 -63.148140
lclavicle 0.000000 0.000000
lhumerus -11.978339 -22.519529 92.659050
lradius 32.760971
lwrist 7.753537
lhand -17.637951 -27.990931
lfingers 7.837522
lthumb 11.183590 4.716877
rfemur -39.442150 3.238576 16.161860
rtibia 42.877892
rfoot -21.585630 -10.153781
rtoes -18.938810
lfemur -1.138775 2.377386 -31.451420
ltibia 17.845299
lfoot -19.211281 4.241226
ltoes 7.253070
477
root 12.001770 19.105350 33.560780 4.468266 4.853442 3.841233
lowerback -5.511726 -4.841111 -4.552834
upperback 0.233422 -6.247516 1.910964
thorax 3.963905 -3.212088 3.989579
lowerneck -24.552330 -2.778083 -10.607982
upperneck 27.228849 -3.197920 10.429497
head 13.365440 -1.071818 5.226056
rclavicle 0.000000 -0.000000
rhumerus -52.471867 10.814562 -94.757744
rradius 43.365849
rwrist -22.468052
rhand -34.040268 -27.258110
rfingers 7.837522
rthumb -4.653803 -60.189579
lclavicle 0.000000 -0.000000
lhumerus -10.595639 -22.961290 92.239952
lradius 33.057091
lwrist 8.332115
lhand -17.406401 -27.926359
lfingers 7.837522
lthumb 11.407000 4.770392
rfemur -39.962337 3.656554 15.664440
rtibia 41.236691
rfoot -21.810141 -9.268919
rtoes -18.221609
lfemur -0.112720 2.679710 -31.729719
ltibia 16.757401
lfoot -19.177950 4.094552
ltoes 7.547694
478
root 11.997040 19.084120 33.700920 4.491674 4.692413 4.113571
lowerback -8.673335 -4.681556 -4.828780
upperback 2.819212 -5.865739 1.687433
thorax 8.457790 -3.144449 3.616404
lowerneck -26.469629 -3.253932 -10.846418
upperneck 25.405710 -3.642089 10.982851
head 13.103970 -1.163503 5.352479
rclavicle -0.000000 0.000000
rhumerus -48.388447 9.494859 -93.959473
rradius 43.083591
rwrist -22.169180
rhand -34.307682 -26.415400
rfingers 7.837522
rthumb -4.912028 -59.341591
lclavicle -0.000000 0.000000
lhumerus -5.590277 -24.312199 90.368195
lradius 33.248711
lwrist 9.413965
lhand -17.197399 -27.653669
lfingers 7.837522
lthumb 11.608630 5.032918
rfemur -40.352730 4.334605 15.116860
rtibia 39.711430
rfoot -22.117260 -8.343290
rtoes -16.820869
lfemur 1.081881 2.939882 -31.938280
ltibia 15.487560
lfoot -19.093142 4.073905
ltoes 6.535837
479
root 11.990109 19.078291 33.841721 4.477605 4.609858 4.182717
lowerback -7.572796 -4.694074 -4.853904
upperback 1.979747 -5.928659 1.695089
thorax 6.938602 -3.139455 3.740605
lowerneck -25.810181 -3.030214 -10.468600
upperneck 25.957140 -3.507416 10.772575
head 13.160951 -1.114311 5.244217
rclavicle 0.000000 -0.000000
rhumerus -50.123039 9.593606 -94.172424
rradius 43.246830
rwrist -22.288639
rhand -34.305481 -27.678202
rfingers 7.837522
rthumb -4.909839 -60.604500
lclavicle 0.000000 -0.000000
lhumerus -7.029209 -24.406250 90.908730
lradius 33.843811
lwrist 9.404197
lhand -17.251740 -27.484051
lfingers 7.837522
lthumb 11.556160 5.205134
rfemur -40.781403 5.318082 14.661901
rtibia 38.338303
rfoot -22.327139 -7.974263
rtoes -14.213210
lfemur 2.460062 2.988447 -31.915621
ltibia 13.845370
lfoot -18.799660 4.139509
ltoes 4.927021
